<?xml version="1.0" encoding="UTF-8" standalone="no"?>
<!-- Created with Inkscape (http://www.inkscape.org/) -->

<svg
   version="1.1"
   id="svg973"
   width="266.66666"
   height="61.333332"
   viewBox="0 0 266.66666 61.333332"
   sodipodi:docname="df70517108d94e01826de29c0f0182ae (2).png"
   inkscape:version="1.2 (1:1.2+202206011327+fc4e4096c5)"
   xmlns:inkscape="http://www.inkscape.org/namespaces/inkscape"
   xmlns:sodipodi="http://sodipodi.sourceforge.net/DTD/sodipodi-0.dtd"
   xmlns="http://www.w3.org/2000/svg"
   xmlns:svg="http://www.w3.org/2000/svg">
  <defs
     id="defs977" />
  <sodipodi:namedview
     id="namedview975"
     pagecolor="#ffffff"
     bordercolor="#000000"
     borderopacity="0.25"
     inkscape:showpageshadow="2"
     inkscape:pageopacity="0.0"
     inkscape:pagecheckerboard="0"
     inkscape:deskcolor="#d1d1d1"
     showgrid="false"
     inkscape:zoom="2"
     inkscape:cx="-4.25"
     inkscape:cy="78.25"
     inkscape:window-width="1848"
     inkscape:window-height="1016"
     inkscape:window-x="72"
     inkscape:window-y="27"
     inkscape:window-maximized="1"
     inkscape:current-layer="g979" />
  <g
     inkscape:groupmode="layer"
     inkscape:label="Image"
     id="g979">
    <path
       style="fill:#740ff6;stroke-width:1.33333"
       d="m 0.00192884,30.671682 c 0,-30.66666432 0,-30.66666432 133.33334116,-30.66666432 133.33333,0 133.33333,0 133.33333,30.66666432 0,30.66667 0,30.66667 -133.33333,30.66667 -133.33334116,0 -133.33334116,0 -133.33334116,-30.66667 z m 145.33334116,0 c 0,-25.3333313 0,-25.3333313 -68.666676,-25.3333313 -68.6666654,0 -68.6666654,0 -68.6666654,25.3333313 0,25.33333 0,25.33333 68.6666654,25.33333 68.666676,0 68.666676,0 68.666676,-25.33333 z m -124.734711,6 c -1.06258,-2.56667 -2.831964,-6.83994 -3.931964,-9.49616 -2.460681,-5.941933 -2.497786,-7.170506 -0.216562,-7.170506 0.98089,0 2.905142,3.299999 4.276114,7.333336 1.370972,4.03333 2.927992,7.33333 3.460045,7.33333 1.850643,0 2.539639,-5.00393 1.181026,-8.57736 -1.759163,-4.626944 -1.741998,-4.755973 0.63271,-4.755973 1.1,0 2,0.9 2,2 0,1.1 0.6,2 1.333334,2 0.733333,0 1.333333,-0.9 1.333333,-2 0,-1.1 0.964193,-2 2.142652,-2 1.51767,0 1.862461,0.6806 1.182061,2.333333 -1.948213,4.73234 -2.110852,6.44474 -0.918282,9.66856 1.127242,3.04723 1.449614,2.66671 4.251963,-5.019 2.75339,-7.551433 8.260751,-12.74649 6.01643,-5.675262 -5.35069,16.858532 -8.763938,20.966002 -12.085257,14.543272 -2.233531,-4.31917 -2.233531,-4.31917 -4.013851,-0.085 -2.305225,5.48252 -4.247309,5.35608 -6.643752,-0.43253 z m 25.496608,2.57143 c -6.012776,-6.01278 1.082098,-16.53668 8.391735,-12.44756 6.1228,3.42519 5.460472,7.87613 -1.172017,7.87613 -3.855269,0 -5.358112,0.50625 -4.947653,1.66667 0.340389,0.96232 2.359509,1.52365 4.777778,1.32826 4.382687,-0.35412 5.707711,1.47003 2.079202,2.86242 -3.583299,1.37504 -6.941062,0.90206 -9.129045,-1.28592 z m 8.571427,-8.46032 c 0,-1.56173 -2.837396,-2.56733 -5,-1.77205 -2.886,1.06132 -1.81008,2.99427 1.666667,2.99427 1.833333,0 3.333333,-0.55 3.333333,-1.22222 z m 6.666667,-0.29293 c 0,-8.430974 0.391778,-10.484846 2,-10.484846 1.330134,0 2,1.330157 2,3.971414 0,3.750572 0.185062,3.887092 3.327917,2.455112 6.651114,-3.030448 12.000934,7.56085 6.338749,12.54913 -7.307908,6.43814 -13.666666,2.48758 -13.666666,-8.49081 z m 11.747578,2.42494 c -0.298896,-2.09954 -1.337352,-2.90979 -3.729318,-2.90979 -3.755763,0 -5.19736,3.63937 -2.65502,6.70271 2.306996,2.77976 6.929118,0.0338 6.384338,-3.79292 z m 14.919088,-2.24312 c 0,-11.865889 0.793477,-12.575353 10.341788,-9.246793 11.862745,4.135373 7.121275,19.834243 -6.008455,19.893803 -4.333333,0.0197 -4.333333,0.0197 -4.333333,-10.64701 z m 11.953091,4.08766 c 2.931482,-5.47754 -0.0362,-10.754327 -6.04833,-10.754327 -2.996825,0 -3.238095,0.496732 -3.238095,6.666667 0,7.43574 6.065666,10.10569 9.286425,4.08766 z m 9.380242,3.91234 c -4.78009,-4.78009 -1.35879,-13.333333 5.33334,-13.333333 3.13169,0 8,4.462623 8,7.333333 0,1.48933 -1.57369,2 -6.16326,2 -5.40613,0 -5.95332,0.25298 -4.45422,2.05928 1.21757,1.46708 2.8866,1.80064 5.80378,1.15992 3.67658,-0.80751 3.91052,-0.6774 2.29095,1.27406 -2.46167,2.96613 -7.58496,2.73237 -10.81059,-0.49326 z m 7.61906,-8.95238 c -2.15873,-2.15873 -2.41271,-2.15873 -4.57144,0 -2.15873,2.15873 -2.03175,2.28571 2.28572,2.28571 4.31746,0 4.44445,-0.12698 2.28572,-2.28571 z m 10.47263,7.28571 c -3.37907,-8.26219 -3.725,-10.33333 -1.72591,-10.33333 1.0498,0 2.64296,2.50035 3.61065,5.66667 1.73186,5.66666 1.73186,5.66666 3.6555,0 1.058,-3.11667 2.70448,-5.66667 3.65885,-5.66667 1.3076,0 1.06951,1.80712 -0.9662,7.33333 -3.08409,8.37219 -5.65294,9.30826 -8.23289,3 z m 57.20457,3.26957 c 1.18674,-8.62855 2.76339,-10.97134 3.82187,-5.67898 1.24343,6.21711 4.6346,6.72239 9.11313,1.35784 3.97927,-4.76653 4.32395,-4.0854 2.55637,5.05157 -1.09622,5.66667 -1.09622,5.66667 3.0865,5.66667 4.18272,0 4.18272,0 6.92076,-16 3.39768,-19.854601 -0.95446,-23.1934283 -10.86241,-8.333333 -5.11175,7.666663 -5.11175,7.666663 -7.2418,0.333333 -2.4666,-8.491984 -9.79303,-11.791117 -11.2836,-5.081065 -1.42812,6.428972 -4.7404,25.454325 -4.7404,27.228355 0,5.88701 7.7567,1.80228 8.62958,-4.54439 z m 37.29309,3.3971 c 0.3521,-1.65 0.81844,-4.2 1.03632,-5.66667 0.28604,-1.92533 1.5939,-2.78252 4.70452,-3.08342 4.30834,-0.41677 4.30834,-0.41677 3.47451,5.66666 -2.09629,15.29414 6.70788,8.1816 9.38681,-7.58324 1.27732,-7.51666 2.6222,-14.716663 2.98863,-15.999996 0.53211,-1.863564 -0.1656,-2.333334 -3.46547,-2.333334 -4.37253,0 -4.69365,0.445652 -6.00453,8.333334 -1.50627,9.063316 -9.29719,7.448976 -8.04347,-1.666667 0.91691,-6.666667 0.91691,-6.666667 -3.20821,-6.666667 -2.26881,0 -4.12595,0.45 -4.12695,1 -0.003,1.227287 -3.66244,22.2776 -4.75268,27.33333 -0.72749,3.37351 -0.46446,3.66667 3.28983,3.66667 3.15311,0 4.22604,-0.68185 4.72069,-3 z"
       id="path2590" />
  </g>
</svg>
